<svg xmlns="http://www.w3.org/2000/svg" viewBox="0 0 400 220" fill="none" aria-hidden="true">
  <defs>
    <linearGradient id="bgB" x1="0" y1="0" x2="400" y2="220" gradientUnits="userSpaceOnUse">
      <stop stop-color="#2C89C8" stop-opacity="0.35"/>
      <stop offset="0.55" stop-color="#59C34F" stop-opacity="0.2"/>
      <stop offset="1" stop-color="#0f172a" stop-opacity="0.85"/>
    </linearGradient>
    <linearGradient id="scanB" x1="180" y1="60" x2="320" y2="160" gradientUnits="userSpaceOnUse">
      <stop stop-color="#67B7E6"/>
      <stop offset="1" stop-color="#2C89C8"/>
    </linearGradient>
  </defs>
  <rect width="400" height="220" rx="20" fill="url(#bgB)"/>
  <rect x="48" y="72" width="200" height="76" rx="10" stroke="rgba(255,255,255,0.2)" stroke-width="2" fill="rgba(15,23,42,0.45)"/>
  <g opacity="0.9">
    <rect x="64" y="92" width="6" height="36" rx="1" fill="#67B7E6"/><rect x="76" y="88" width="6" height="40" rx="1" fill="#2C89C8"/>
    <rect x="88" y="96" width="6" height="32" rx="1" fill="#59C34F"/><rect x="100" y="84" width="6" height="44" rx="1" fill="#67B7E6"/>
    <rect x="112" y="92" width="6" height="36" rx="1" fill="#2C89C8"/><rect x="124" y="100" width="6" height="28" rx="1" fill="#59C34F"/>
    <rect x="136" y="88" width="6" height="40" rx="1" fill="#67B7E6"/><rect x="148" y="96" width="6" height="32" rx="1" fill="#2C89C8"/>
    <rect x="160" y="90" width="6" height="38" rx="1" fill="#59C34F"/><rect x="172" y="94" width="6" height="34" rx="1" fill="#67B7E6"/>
    <rect x="184" y="86" width="6" height="42" rx="1" fill="#2C89C8"/><rect x="196" y="98" width="6" height="30" rx="1" fill="#59C34F"/>
    <rect x="208" y="92" width="6" height="36" rx="1" fill="#67B7E6"/><rect x="220" y="88" width="6" height="40" rx="1" fill="#2C89C8"/>
  </g>
  <path d="M248 52l112 28v96l-112 28V52z" fill="url(#scanB)" opacity="0.95"/>
  <path d="M268 96h72M268 112h56M268 128h64" stroke="rgba(255,255,255,0.45)" stroke-width="3" stroke-linecap="round"/>
  <ellipse cx="304" cy="168" rx="36" ry="10" fill="rgba(44,137,200,0.35)"/>
  <circle cx="304" cy="118" r="8" fill="#59C34F" opacity="0.9"/>
</svg>
